<svg width="32" height="34" viewBox="0 0 32 34" fill="none" xmlns="http://www.w3.org/2000/svg">
    <path
        d="M18.7502 16.6305C18.7502 18.7051 17.0709 21.5412 14.9962 21.5412C12.9215 21.5412 11.2422 18.7051 11.2422 16.6305C11.2422 14.5558 12.9215 12.8765 14.9962 12.8765C17.0675 12.8765 18.7502 14.5592 18.7502 16.6305Z"
        fill="black" />
    <path
        d="M18.1792 16.6309C18.1792 16.8041 18.1891 17.0132 18.1431 17.1831C18.1725 17.0752 18.1496 17.144 18.1367 17.2124C18.1302 17.255 18.1237 17.2941 18.1138 17.3367C18.0941 17.4412 18.0713 17.5427 18.0454 17.6472C17.9963 17.8433 17.9374 18.036 17.869 18.2254C17.8363 18.3136 17.8005 18.4018 17.7678 18.4934C17.745 18.5553 17.7808 18.464 17.7841 18.4573C17.7712 18.4835 17.7613 18.5128 17.7481 18.539C17.7284 18.5847 17.7055 18.6337 17.6827 18.6796C17.503 19.0521 17.2874 19.4018 17.0456 19.7349C17.0065 19.7873 17.0653 19.7087 17.0685 19.7056C17.0487 19.7284 17.0324 19.7512 17.0129 19.774C16.9867 19.8067 16.9574 19.8394 16.9312 19.8721C16.8628 19.9538 16.7906 20.0321 16.7157 20.1074C16.5849 20.2412 16.4446 20.3621 16.3006 20.483C16.4117 20.3883 16.3006 20.483 16.2713 20.5027C16.2322 20.5289 16.1961 20.5551 16.1569 20.581C16.0786 20.6301 16 20.6791 15.9185 20.7216C15.8794 20.7444 15.8368 20.7642 15.7977 20.7836C15.7813 20.7935 15.7616 20.8 15.7453 20.8098C15.6506 20.8555 15.7715 20.8033 15.7746 20.8C15.7222 20.849 15.5917 20.8684 15.523 20.8882C15.4381 20.9144 15.353 20.9338 15.2649 20.9501C15.2451 20.9535 15.2257 20.9535 15.2093 20.96C15.1473 20.9763 15.2649 20.947 15.2682 20.9535C15.2649 20.947 15.1375 20.9665 15.118 20.9665C15.0363 20.9699 14.9515 20.9699 14.8698 20.9665C14.8633 20.9665 14.739 20.9501 14.7359 20.9535C14.7359 20.9501 14.8568 20.9732 14.7948 20.96C14.7655 20.9535 14.7328 20.9502 14.7001 20.9437C14.6184 20.9273 14.5401 20.9076 14.4618 20.8817C14.4192 20.8687 14.3769 20.8555 14.3344 20.8391C14.3147 20.8326 14.2983 20.8262 14.282 20.8194C14.2003 20.7901 14.2428 20.8358 14.295 20.8259C14.2459 20.8358 14.1087 20.7377 14.0695 20.7149C13.9878 20.6692 13.9095 20.6233 13.8343 20.5712C13.7951 20.545 13.7559 20.5188 13.7199 20.4928C13.7035 20.4799 13.6872 20.4666 13.6708 20.4568C13.6055 20.4111 13.7492 20.5221 13.6906 20.4731C13.6187 20.4111 13.5435 20.3489 13.4716 20.2835C13.3279 20.1496 13.1907 20.0057 13.0633 19.8555C13.0306 19.8163 12.998 19.7771 12.9686 19.738C12.9002 19.6532 13.0177 19.8033 12.9523 19.7151C12.8869 19.627 12.8249 19.5388 12.7627 19.4472C12.6483 19.2739 12.5437 19.0975 12.4457 18.9146C12.4 18.8298 12.3575 18.7447 12.3183 18.6565C12.2955 18.6109 12.2758 18.5619 12.253 18.5159C12.2431 18.4962 12.2366 18.4768 12.2268 18.4539C12.2465 18.4931 12.2594 18.5292 12.2332 18.4669C12.158 18.2773 12.0895 18.0846 12.0307 17.8887C11.9751 17.6991 11.9261 17.5064 11.8901 17.3105C11.8802 17.2615 11.8737 17.2158 11.8639 17.1668C11.8605 17.1505 11.8509 17.1243 11.854 17.1048C11.854 17.1048 11.867 17.2223 11.8605 17.1572C11.8506 17.056 11.8377 16.958 11.8343 16.8599C11.8213 16.6607 11.8244 16.4612 11.8441 16.262C11.8506 16.2065 11.8605 16.1347 11.8441 16.2358C11.854 16.1834 11.8605 16.1347 11.8703 16.0823C11.8901 15.9811 11.9129 15.8797 11.9388 15.7816C11.965 15.6836 11.9977 15.5855 12.0335 15.4908C12.0498 15.4418 12.0696 15.3961 12.089 15.3502C12.0465 15.4581 12.089 15.3536 12.1118 15.3077C12.1967 15.1279 12.2981 14.9515 12.4125 14.7881C12.4418 14.7456 12.4714 14.7064 12.5007 14.6672C12.4452 14.7456 12.481 14.6901 12.517 14.6475C12.5855 14.5658 12.6576 14.4841 12.7326 14.4091C12.7979 14.3438 12.8633 14.2784 12.9352 14.2164C12.9712 14.1837 13.0104 14.151 13.0496 14.1184C13.0659 14.1054 13.0823 14.0922 13.0986 14.0792C13.0431 14.1248 13.0496 14.1152 13.102 14.0792C13.2589 13.9682 13.4221 13.8636 13.5953 13.7754C13.641 13.7526 13.6869 13.7329 13.7326 13.7101C13.7523 13.7002 13.7717 13.6937 13.7915 13.6839C13.6804 13.7394 13.7489 13.7002 13.7751 13.6903C13.8698 13.6543 13.9647 13.6185 14.0625 13.5892C14.1606 13.5599 14.2586 13.5337 14.3598 13.5108C14.4023 13.501 14.448 13.4911 14.4905 13.4846C14.5429 13.4748 14.6866 13.4584 14.559 13.4717C14.7715 13.452 14.9805 13.439 15.1961 13.4488C15.2418 13.4522 15.2877 13.4553 15.3333 13.4587C15.353 13.4587 15.5162 13.4784 15.4379 13.4686C15.3626 13.4587 15.4379 13.4686 15.4508 13.4719C15.4801 13.4784 15.5097 13.4818 15.539 13.4883C15.5979 13.4981 15.6565 13.5111 15.7123 13.5243C15.9115 13.57 16.1043 13.6354 16.2939 13.7106C16.2023 13.6745 16.2677 13.7007 16.3167 13.7235C16.3624 13.7464 16.4083 13.7661 16.4506 13.7889C16.5388 13.8346 16.6269 13.8836 16.712 13.9391C16.7969 13.9915 16.8755 14.0535 16.9603 14.109C17.0127 14.1451 16.9341 14.0862 16.931 14.0828C16.9473 14.0958 16.9637 14.109 16.98 14.122C17.0225 14.158 17.0682 14.1938 17.1107 14.233C17.2609 14.3669 17.395 14.5108 17.5224 14.6644C17.5354 14.6807 17.5486 14.6971 17.5616 14.7134C17.5517 14.7004 17.4897 14.6154 17.5486 14.7004C17.5748 14.7365 17.5976 14.7689 17.6238 14.805C17.6858 14.8932 17.7413 14.9847 17.7937 15.0794C17.8394 15.1611 17.8819 15.2428 17.9211 15.3277C17.931 15.3474 17.9374 15.3668 17.9473 15.3866C17.9865 15.4584 17.9112 15.2919 17.9408 15.3702C17.9572 15.4192 17.9769 15.4649 17.9963 15.5108C18.0648 15.7035 18.1206 15.9028 18.1564 16.1054C18.1629 16.1347 18.1662 16.1642 18.1727 16.1935C18.1761 16.2065 18.1857 16.2817 18.1761 16.2065C18.1662 16.1282 18.1826 16.2913 18.1859 16.3111C18.1727 16.4187 18.1792 16.5263 18.1792 16.6309C18.1826 16.9315 18.4407 17.2158 18.7509 17.2026C19.0581 17.1896 19.326 16.951 19.3226 16.6309C19.3097 14.6675 17.9406 12.8836 16.0195 12.4294C14.1017 11.9752 12.0237 12.8966 11.1383 14.6774C10.694 15.5725 10.5928 16.543 10.756 17.5199C10.9062 18.4117 11.2722 19.2939 11.7754 20.0454C12.2688 20.7839 12.9223 21.4731 13.7456 21.8326C14.6214 22.215 15.5492 22.1854 16.4052 21.7608C17.2187 21.3525 17.8656 20.627 18.3362 19.8625C18.8296 19.062 19.1562 18.1603 19.277 17.2291C19.3032 17.033 19.3196 16.8338 19.3196 16.6377C19.3196 16.337 19.055 16.0527 18.7479 16.0659C18.4405 16.0755 18.1793 16.3108 18.1793 16.6309L18.1792 16.6309Z"
        fill="black" />
    <path
        d="M22.5144 26.733V29.742H7.48535V26.733C7.48535 24.6028 9.20049 22.8809 11.3276 22.8809H12.2292L15.0097 26.024L17.7671 22.8809H18.6688C20.7989 22.8809 22.5144 24.6059 22.5144 26.733Z"
        fill="black" />
    <path
        d="M21.9527 26.7332V29.3601V29.7357C22.1424 29.5461 22.3351 29.3534 22.5245 29.164H21.0249H17.4278H13.0922H9.32828C8.72051 29.164 8.10959 29.1347 7.50184 29.164H7.47565C7.66527 29.3536 7.858 29.5464 8.04736 29.7357V26.8442V26.7332C8.04736 26.6253 8.05074 26.5207 8.06033 26.4131C8.06371 26.3903 8.07668 26.2302 8.07019 26.3119C8.06371 26.3871 8.07019 26.3119 8.07356 26.2989C8.08005 26.2629 8.08653 26.2271 8.09328 26.1879C8.13245 25.9659 8.19444 25.7469 8.27304 25.5345C8.2829 25.5083 8.33841 25.3776 8.3091 25.4429C8.27641 25.5148 8.34178 25.3744 8.35164 25.3547C8.40066 25.2502 8.45617 25.1488 8.51506 25.051C8.57057 24.9594 8.62945 24.8712 8.69144 24.783C8.72076 24.7438 8.7895 24.6556 8.71764 24.7438C8.75681 24.6948 8.79936 24.6458 8.8419 24.5968C8.98249 24.4367 9.13606 24.2896 9.29922 24.1524C9.40713 24.0609 9.23722 24.195 9.35162 24.1099C9.39078 24.0806 9.43333 24.051 9.47249 24.0251C9.56718 23.9597 9.66522 23.9008 9.76328 23.8453C9.85147 23.7963 9.94304 23.7537 10.0312 23.7114C10.1259 23.6658 10.0312 23.7114 10.0149 23.7179C10.0411 23.7081 10.0673 23.6951 10.0966 23.6852C10.1521 23.6655 10.2045 23.6461 10.26 23.6264C10.3843 23.5838 10.5117 23.548 10.639 23.5218C10.6979 23.5089 10.7534 23.499 10.8123 23.4858C10.8647 23.4759 11.0084 23.4629 10.8808 23.4728C11.0572 23.4598 11.2336 23.4466 11.4099 23.4466H12.2333C12.0994 23.3911 11.9653 23.3356 11.8281 23.2801C12.6415 24.1981 13.4519 25.1163 14.2654 26.031C14.3798 26.1618 14.4942 26.2925 14.6117 26.4199C14.8078 26.6419 15.2259 26.6419 15.4186 26.4199C16.2256 25.5019 17.0326 24.5805 17.8396 23.6625C17.954 23.5351 18.065 23.4044 18.1794 23.277C18.0456 23.3325 17.9115 23.388 17.7742 23.4435H18.5877C18.7543 23.4435 18.9177 23.45 19.0811 23.4664C19.189 23.4762 19.0811 23.4664 19.0614 23.463C19.0907 23.4664 19.1203 23.4728 19.1496 23.476C19.2149 23.4858 19.2803 23.4988 19.3457 23.512C19.4666 23.5382 19.5874 23.5709 19.705 23.6101C19.767 23.6298 19.8292 23.6526 19.8878 23.6754C19.914 23.6853 19.9402 23.6983 19.9695 23.7081C20.0448 23.7374 19.8813 23.6625 19.9532 23.7016C20.0611 23.7572 20.1721 23.8062 20.28 23.8651C20.3846 23.9239 20.4891 23.9893 20.5872 24.0578C20.61 24.0741 20.6328 24.0905 20.6557 24.1068C20.672 24.1167 20.7438 24.1753 20.6819 24.1265C20.6199 24.0775 20.6917 24.1364 20.7081 24.1494C20.7343 24.1722 20.7636 24.195 20.7898 24.2178C20.8813 24.2962 20.9695 24.3813 21.0512 24.4661C21.0904 24.5086 21.1296 24.5478 21.1656 24.5903C21.1854 24.6132 21.2017 24.6329 21.2211 24.6557C21.231 24.6687 21.3223 24.78 21.2702 24.7146C21.2211 24.6526 21.28 24.7276 21.2899 24.7408C21.3062 24.7636 21.3226 24.7864 21.3389 24.8093C21.3716 24.8549 21.4043 24.9039 21.4336 24.953C21.5021 25.0609 21.5674 25.175 21.6232 25.2894C21.6525 25.3483 21.6787 25.4069 21.7049 25.4658C21.6396 25.3351 21.7311 25.5312 21.7441 25.5703C21.7898 25.7011 21.8323 25.8318 21.865 25.969C21.8813 26.0344 21.8943 26.0998 21.9075 26.1618C21.914 26.2043 21.9368 26.4232 21.9272 26.2728C21.9363 26.4326 21.9495 26.5828 21.9527 26.7332C21.956 27.0339 22.2141 27.3182 22.5244 27.3049C22.8315 27.292 23.0995 27.0533 23.0961 26.7332C23.0896 25.5343 22.5996 24.3579 21.7239 23.5281C20.8941 22.7408 19.7898 22.3094 18.6461 22.3061C18.3553 22.3061 18.0611 22.2931 17.7703 22.3061C17.4533 22.319 17.3195 22.525 17.1366 22.7341C16.6661 23.27 16.1989 23.8025 15.7283 24.3382C15.3558 24.7628 14.9802 25.1908 14.6077 25.6157H15.4147C14.9148 25.0505 14.4149 24.4853 13.9151 23.9234C13.5916 23.5608 13.2715 23.1947 12.9481 22.8321C12.8599 22.7309 12.7683 22.6295 12.6801 22.5283C12.5429 22.3748 12.3567 22.3063 12.151 22.3063C11.5987 22.3063 11.0498 22.2899 10.5009 22.3846C9.70687 22.5252 8.96863 22.9107 8.36732 23.4399C7.76941 23.9691 7.3284 24.6749 7.09312 25.4362C6.93956 25.9327 6.90039 26.4458 6.90039 26.962V29.6639V29.7324C6.90039 30.0429 7.16186 30.3041 7.47211 30.3041H8.97169H12.5688H16.9044H20.6683C21.2761 30.3041 21.887 30.3205 22.4947 30.3041H22.5209C22.8314 30.3041 23.0926 30.0427 23.0926 29.7324V27.1054V26.7298C23.0926 26.4292 22.8312 26.1449 22.5209 26.1581C22.2141 26.1745 21.9526 26.4129 21.9526 26.7332L21.9527 26.7332Z"
        fill="black" />
    <path
        d="M27.2194 17.9408C27.2194 19.5483 25.9157 21.7503 24.3084 21.7503C22.7009 21.7503 21.3975 19.5514 21.3975 17.9408C21.3975 16.3333 22.7012 15.0298 24.3084 15.0298C25.9157 15.0298 27.2194 16.3333 27.2194 17.9408Z"
        fill="black" />
    <path
        d="M26.6476 17.941C26.6476 18.0128 26.6443 18.0847 26.6412 18.1534C26.6378 18.1861 26.6347 18.2188 26.6347 18.2515C26.6313 18.2875 26.6347 18.418 26.6347 18.2613C26.6347 18.4051 26.5792 18.5719 26.5465 18.7122C26.5104 18.8528 26.4681 18.99 26.4191 19.1239C26.3963 19.1923 26.3667 19.2611 26.3408 19.3298C26.2853 19.467 26.3932 19.2219 26.3278 19.356C26.3081 19.3952 26.2917 19.4377 26.2723 19.4769C26.1384 19.7547 25.9781 20.0159 25.7953 20.2675C25.7104 20.385 25.8736 20.176 25.7789 20.2872C25.7561 20.3134 25.7333 20.3428 25.7104 20.369C25.658 20.4278 25.6059 20.4865 25.5535 20.5422C25.5045 20.5913 25.4554 20.6403 25.4033 20.6893C25.3836 20.709 25.3608 20.7254 25.3413 20.7448C25.3185 20.7645 25.1714 20.8787 25.2988 20.784C25.1942 20.8623 25.0832 20.9376 24.9654 20.9996C24.9328 21.0159 24.8282 21.0911 24.7922 21.0844C24.815 21.0745 24.8347 21.0647 24.8575 21.0582C24.8347 21.068 24.8085 21.0779 24.7857 21.0844C24.7496 21.0973 24.7138 21.1106 24.6778 21.1204C24.6158 21.1401 24.5569 21.1531 24.4949 21.1661C24.3577 21.1923 24.4915 21.1531 24.4983 21.1695C24.4983 21.1695 24.4329 21.1759 24.423 21.1759C24.3546 21.1793 24.2824 21.1793 24.214 21.1759C24.2041 21.1759 24.1224 21.1661 24.1193 21.1695C24.2075 21.1824 24.2204 21.1824 24.1584 21.1728C24.1455 21.1695 24.1322 21.1695 24.1224 21.1663C24.0539 21.1534 23.9885 21.137 23.9198 21.1173C23.8905 21.1075 23.8609 21.0976 23.8282 21.088C23.8153 21.0846 23.8054 21.0782 23.7922 21.075C23.7333 21.0522 23.7431 21.0553 23.8215 21.088C23.7823 21.0945 23.6809 21.0195 23.6482 21.0032C23.5797 20.964 23.511 20.9248 23.4456 20.8789C23.4129 20.8561 23.2464 20.722 23.3673 20.8234C23.3149 20.7778 23.2627 20.7352 23.2103 20.6896C23.0959 20.585 22.9883 20.474 22.8902 20.3562C22.8609 20.3236 22.8347 20.2909 22.8085 20.2551C22.8215 20.2681 22.8804 20.3531 22.8184 20.2681C22.7758 20.2092 22.7336 20.1505 22.691 20.0917C22.5963 19.9511 22.5113 19.8074 22.4295 19.6572C22.3904 19.5853 22.3543 19.5135 22.3216 19.4382C22.3087 19.412 22.2988 19.3858 22.2856 19.3565C22.2236 19.2193 22.3281 19.4709 22.2726 19.3303C22.2137 19.1801 22.1582 19.033 22.1126 18.8795C22.0734 18.7456 22.0373 18.6084 22.0114 18.4678C21.9984 18.4025 21.9753 18.3306 21.9787 18.2652C21.9787 18.4222 21.9852 18.2945 21.9787 18.2554C21.9753 18.2162 21.9722 18.177 21.9689 18.1379C21.959 17.9973 21.959 17.8569 21.9722 17.7163C21.9756 17.6707 21.9821 17.6281 21.9852 17.5825C21.9689 17.7197 21.9818 17.6152 21.9886 17.5791C22.0049 17.4909 22.0246 17.4058 22.0474 17.321C22.0672 17.2427 22.0931 17.1675 22.1193 17.0922C22.1292 17.066 22.139 17.0398 22.152 17.0105C22.0996 17.1477 22.152 17.0139 22.1618 16.9877C22.2303 16.844 22.3089 16.7099 22.3971 16.5794C22.4135 16.5566 22.4298 16.5337 22.4461 16.5109C22.5279 16.3934 22.3678 16.5991 22.4625 16.4912C22.5081 16.4388 22.5541 16.3833 22.6031 16.3311C22.6521 16.2788 22.7042 16.23 22.7566 16.1841C22.7893 16.1548 22.822 16.1286 22.8547 16.0993C22.9626 16.0046 22.7566 16.1677 22.8744 16.0829C22.9987 15.9947 23.1227 15.9164 23.2568 15.8476C23.2895 15.8313 23.3221 15.8149 23.3515 15.7986C23.3579 15.7952 23.4853 15.7397 23.4005 15.7758C23.3157 15.8085 23.4495 15.7594 23.4529 15.7561C23.5019 15.7397 23.5476 15.7234 23.5966 15.707C23.6749 15.6842 23.7502 15.6614 23.8285 15.645C23.871 15.6352 24.0931 15.6025 23.9395 15.6222C24.106 15.6025 24.2728 15.596 24.4394 15.6025C24.4785 15.6059 24.5146 15.6059 24.5538 15.609C24.5865 15.6124 24.753 15.6417 24.6028 15.6124C24.691 15.6287 24.7761 15.6417 24.8643 15.6648C24.9491 15.6876 25.0342 15.7104 25.1159 15.74C25.1421 15.7498 25.1714 15.7597 25.1976 15.7693C25.2565 15.7921 25.25 15.789 25.1813 15.7594C25.2075 15.7724 25.2337 15.7823 25.2596 15.7955C25.4132 15.8673 25.5634 15.9555 25.704 16.0536C25.7268 16.0699 25.7496 16.0863 25.7724 16.1026C25.6516 16.0111 25.7986 16.1288 25.8215 16.1483C25.8868 16.2038 25.9457 16.2627 26.0043 16.3247C26.0632 16.3867 26.1187 16.452 26.1742 16.5174C26.1613 16.5044 26.1024 16.4193 26.1613 16.5044C26.194 16.5501 26.2266 16.596 26.2593 16.645C26.305 16.7169 26.3509 16.7921 26.3901 16.8671C26.403 16.8933 26.4163 16.9195 26.4292 16.9423C26.4422 16.9685 26.5141 17.1449 26.4586 17.0043C26.5174 17.1612 26.5696 17.3213 26.6056 17.4844C26.6121 17.5205 26.6186 17.5563 26.6253 17.5924C26.6482 17.7099 26.6155 17.4844 26.6318 17.638C26.6409 17.7449 26.6476 17.8429 26.6476 17.941C26.651 18.2416 26.9091 18.5259 27.2194 18.5127C27.5265 18.4997 27.7945 18.2611 27.7911 17.941C27.7781 16.3597 26.6803 14.9187 25.1283 14.5561C23.5862 14.1934 21.9068 14.935 21.2013 16.3726C20.5185 17.7645 20.8679 19.4177 21.7076 20.6656C22.1029 21.2537 22.6225 21.8026 23.2824 22.0902C23.9948 22.4007 24.7428 22.381 25.442 22.0412C26.1641 21.6916 26.7325 21.0187 27.1179 20.3292C27.5231 19.607 27.7877 18.7772 27.7911 17.944C27.7945 17.6434 27.5265 17.3591 27.2194 17.3723C26.9089 17.3855 26.6508 17.6208 26.6476 17.9409L26.6476 17.941Z"
        fill="black" />
    <path
        d="M24.3115 28.4353H30.1597V26.1025C30.1597 24.4525 28.8072 23.1099 27.1571 23.1099H26.458L24.3115 25.4035V28.4353Z"
        fill="black" />
    <path
        d="M24.3178 29.0035H26.2846H29.4209H30.1431C30.4536 29.0035 30.7148 28.742 30.7148 28.4317C30.7148 27.6575 30.7182 26.8798 30.7148 26.1055C30.7083 25.2297 30.388 24.4033 29.8163 23.7434C29.2412 23.0801 28.4243 22.6817 27.5587 22.5738C27.2972 22.5411 27.036 22.5476 26.7715 22.5476C26.5004 22.5476 26.2454 22.5248 26.0298 22.7372C25.7489 23.0117 25.4908 23.3154 25.2229 23.6031C24.8667 23.9854 24.5075 24.3676 24.1513 24.7532C24.0729 24.8381 23.9912 24.9198 23.916 25.0049C23.7591 25.1877 23.7461 25.3675 23.7461 25.5831V28.3667V28.4419C23.7461 28.7291 24.0107 29.0164 24.3178 29.0035C24.6283 28.9905 24.8895 28.7519 24.8895 28.4318V25.7885V25.403C24.834 25.5369 24.7785 25.671 24.723 25.8082C25.3471 25.1418 25.9678 24.4752 26.5917 23.8054C26.6833 23.7107 26.7715 23.6127 26.8628 23.518C26.729 23.5735 26.5948 23.629 26.4576 23.6845H27.0293H27.2483C27.3398 23.6879 27.428 23.6944 27.5193 23.7042C27.3692 23.6879 27.516 23.7042 27.5422 23.7107C27.5946 23.7206 27.6433 23.7304 27.6924 23.7434C27.7707 23.7631 27.8493 23.7826 27.9243 23.8088C27.9668 23.8217 28.006 23.835 28.0485 23.8513C28.0747 23.8612 28.2055 23.9198 28.0713 23.8578C28.2283 23.9296 28.3785 24.008 28.5222 24.1029C28.5582 24.1257 28.5907 24.1519 28.6267 24.1748C28.7442 24.2565 28.5385 24.0964 28.6464 24.1911C28.6988 24.2368 28.7543 24.2827 28.8065 24.3317C28.8685 24.3906 28.9274 24.4526 28.9829 24.5146C29.0122 24.5473 29.0384 24.5799 29.0646 24.6126C29.1038 24.6617 29.1006 24.6552 29.0547 24.5963C29.0711 24.6191 29.0874 24.6419 29.1038 24.6648C29.1953 24.7921 29.2737 24.9294 29.3455 25.07C29.3652 25.1091 29.3816 25.1483 29.401 25.1875C29.339 25.0536 29.3977 25.1841 29.4075 25.2103C29.4368 25.292 29.463 25.3737 29.4892 25.4585C29.5121 25.5434 29.5318 25.6284 29.5481 25.7166C29.5546 25.7428 29.5709 25.893 29.5546 25.7395C29.558 25.7688 29.5611 25.7983 29.5645 25.8277C29.5743 25.9288 29.5774 26.0269 29.5774 26.1283V27.2816V28.4284C29.767 28.2388 29.9598 28.0461 30.1491 27.8567H28.1824H25.046H24.3238C24.0232 27.8567 23.7389 28.1182 23.7521 28.4284C23.7625 28.742 23.9978 29.0035 24.3179 29.0035L24.3178 29.0035Z"
        fill="black" />
    <path
        d="M8.59638 17.9408C8.59638 19.5483 7.29263 21.7503 5.6854 21.7503C4.0779 21.7503 2.77441 19.5514 2.77441 17.9408C2.77441 16.3333 4.07817 15.0298 5.6854 15.0298C7.29263 15.0298 8.59638 16.3333 8.59638 17.9408Z"
        fill="black" />
    <path
        d="M8.02459 17.941C8.02459 18.0128 8.02122 18.0847 8.01811 18.1534C8.01473 18.1861 8.01162 18.2188 8.01162 18.2515C8.00825 18.2875 8.01162 18.418 8.01162 18.2613C8.01162 18.4051 7.95611 18.5719 7.92343 18.7122C7.88737 18.8528 7.84509 18.99 7.79606 19.1239C7.77323 19.1923 7.74366 19.2611 7.71772 19.3298C7.66221 19.467 7.77012 19.2219 7.70475 19.356C7.68504 19.3952 7.6687 19.4377 7.64924 19.4769C7.51539 19.7547 7.35508 20.0159 7.1722 20.2675C7.08738 20.385 7.25054 20.176 7.15586 20.2872C7.13304 20.3134 7.11021 20.3428 7.08738 20.369C7.03499 20.4278 6.98285 20.4865 6.93045 20.5422C6.88142 20.5913 6.83239 20.6403 6.78025 20.6893C6.76054 20.709 6.73771 20.7254 6.71826 20.7448C6.69543 20.7645 6.54835 20.8787 6.67572 20.784C6.57118 20.8623 6.46016 20.9376 6.34239 20.9996C6.31308 21.0159 6.20517 21.0911 6.16911 21.0844C6.19194 21.0745 6.21165 21.0647 6.23448 21.0582C6.21165 21.068 6.18545 21.0779 6.16263 21.0844C6.12657 21.0973 6.09078 21.1106 6.05472 21.1204C5.99272 21.1401 5.93384 21.1531 5.87184 21.1661C5.73462 21.1923 5.86847 21.1531 5.87521 21.1695C5.87521 21.1695 5.80985 21.1759 5.79999 21.1759C5.73151 21.1793 5.65939 21.1793 5.59092 21.1759C5.58106 21.1759 5.49935 21.1661 5.49623 21.1695C5.58443 21.1824 5.5974 21.1824 5.5354 21.1728C5.52243 21.1695 5.5092 21.1695 5.49935 21.1663C5.43087 21.1534 5.3655 21.137 5.29675 21.1173C5.26744 21.1075 5.23787 21.0976 5.20519 21.088C5.19222 21.0846 5.18236 21.0782 5.16913 21.075C5.11025 21.0522 5.1201 21.0553 5.19844 21.088C5.15927 21.0945 5.05785 21.0195 5.02516 21.0032C4.95668 20.964 4.88794 20.9248 4.82257 20.8789C4.78988 20.8561 4.62335 20.722 4.74423 20.8234C4.69183 20.7778 4.63969 20.7352 4.58729 20.6896C4.47289 20.585 4.36524 20.474 4.26719 20.3562C4.23788 20.3236 4.21168 20.2909 4.18548 20.2551C4.19845 20.2681 4.25733 20.3531 4.19534 20.2681C4.1528 20.2092 4.11052 20.1505 4.06797 20.0917C3.97329 19.9511 3.88821 19.8074 3.8065 19.6572C3.76733 19.5853 3.73127 19.5135 3.69859 19.4382C3.68562 19.412 3.67576 19.3858 3.66253 19.3565C3.60053 19.2193 3.70507 19.4709 3.64956 19.3303C3.59068 19.1801 3.53516 19.033 3.48951 18.8795C3.45034 18.7456 3.41428 18.6084 3.38834 18.4678C3.37538 18.4025 3.35229 18.3306 3.35566 18.2652C3.35566 18.4222 3.36215 18.2945 3.35566 18.2554C3.35229 18.2162 3.34918 18.177 3.3458 18.1379C3.33595 17.9973 3.33595 17.8569 3.34918 17.7163C3.35255 17.6707 3.35903 17.6281 3.36214 17.5825C3.3458 17.7197 3.35877 17.6152 3.36552 17.5791C3.38186 17.4909 3.40157 17.4058 3.4244 17.321C3.44412 17.2427 3.47006 17.1675 3.49625 17.0922C3.50611 17.066 3.51597 17.0398 3.52894 17.0105C3.47654 17.1477 3.52894 17.0139 3.53879 16.9877C3.60727 16.844 3.68587 16.7099 3.77407 16.5794C3.79041 16.5566 3.80676 16.5337 3.8231 16.5109C3.90481 16.3934 3.74476 16.5991 3.83944 16.4912C3.88509 16.4388 3.93101 16.3833 3.98003 16.3311C4.02906 16.2788 4.0812 16.23 4.1336 16.1841C4.16628 16.1548 4.19897 16.1286 4.23166 16.0993C4.33957 16.0046 4.1336 16.1677 4.25137 16.0829C4.37562 15.9947 4.49962 15.9164 4.63372 15.8476C4.66641 15.8313 4.69909 15.8149 4.72841 15.7986C4.73489 15.7952 4.86225 15.7397 4.77743 15.7758C4.69261 15.8085 4.82646 15.7594 4.82983 15.7561C4.87886 15.7397 4.92451 15.7234 4.97354 15.707C5.05188 15.6842 5.12711 15.6614 5.20544 15.645C5.24799 15.6352 5.47003 15.6025 5.31647 15.6222C5.483 15.6025 5.64979 15.596 5.81633 15.6025C5.8555 15.6059 5.89155 15.6059 5.93073 15.609C5.96341 15.6124 6.12995 15.6417 5.97975 15.6124C6.06795 15.6287 6.15303 15.6417 6.24123 15.6648C6.32605 15.6876 6.41114 15.7104 6.49285 15.74C6.51905 15.7498 6.54836 15.7597 6.57456 15.7693C6.63344 15.7921 6.62696 15.789 6.55822 15.7594C6.58442 15.7724 6.61062 15.7823 6.63656 15.7955C6.79012 15.8673 6.94031 15.9555 7.08091 16.0536C7.10374 16.0699 7.12656 16.0863 7.14939 16.1026C7.02851 16.0111 7.17559 16.1288 7.19841 16.1483C7.26378 16.2038 7.32267 16.2627 7.38129 16.3247C7.44017 16.3867 7.49569 16.452 7.5512 16.5174C7.53823 16.5044 7.47935 16.4193 7.53823 16.5044C7.57091 16.5501 7.6036 16.596 7.63628 16.645C7.68194 16.7169 7.72785 16.7921 7.76702 16.8671C7.77999 16.8933 7.79322 16.9195 7.80619 16.9423C7.81916 16.9685 7.89101 17.1449 7.8355 17.0043C7.89439 17.1612 7.94653 17.3213 7.98258 17.4844C7.98907 17.5205 7.99555 17.5563 8.0023 17.5924C8.02512 17.7099 7.99244 17.4844 8.00878 17.638C8.01812 17.7449 8.02459 17.8429 8.02459 17.941C8.02796 18.2416 8.28608 18.5259 8.59632 18.5127C8.90345 18.4997 9.17141 18.2611 9.16804 17.941C9.15507 16.3597 8.05726 14.9187 6.50528 14.5561C4.96313 14.1934 3.28378 14.935 2.57822 16.3726C1.89549 17.7645 2.24489 19.4177 3.08456 20.6656C3.47989 21.2537 3.99944 21.8026 4.65939 22.0902C5.37173 22.4007 6.11979 22.381 6.81892 22.0412C7.54109 21.6916 8.10946 21.0187 8.49488 20.3292C8.90006 19.607 9.16465 18.7772 9.16804 17.944C9.17141 17.6434 8.90345 17.3591 8.59632 17.3723C8.28582 17.3855 8.02772 17.6208 8.0246 17.9409L8.02459 17.941Z"
        fill="black" />
    <path
        d="M5.68798 28.4353H-0.160156V26.1025C-0.160156 24.4525 1.18922 23.1099 2.8424 23.1099H3.54146L5.69136 25.4035V28.4353H5.68798Z"
        fill="black" />
    <path
        d="M5.69505 27.8598H3.7184H0.57214H-0.146641C0.0429819 28.0495 0.235713 28.2422 0.425077 28.4316V26.1836V26.1019C0.425077 26.0266 0.428449 25.9517 0.434934 25.8731C0.438306 25.8438 0.441419 25.8142 0.441419 25.7849C0.447904 25.7195 0.447904 25.726 0.438047 25.8046C0.441419 25.7753 0.447905 25.7457 0.451017 25.7164C0.480329 25.5595 0.519495 25.4028 0.575269 25.2523C0.588239 25.2132 0.604582 25.1706 0.620924 25.1315C0.568525 25.2687 0.620924 25.1348 0.633894 25.1117C0.676435 25.0202 0.725462 24.932 0.777604 24.8472C0.813661 24.7852 0.852829 24.7263 0.89511 24.6674C0.911452 24.6446 0.999646 24.5335 0.908079 24.6477C0.934278 24.615 0.960478 24.5823 0.989793 24.5496C1.10082 24.4189 1.22507 24.3079 1.3558 24.1935C1.46371 24.0988 1.25775 24.2588 1.37552 24.1771C1.41158 24.1543 1.444 24.1281 1.48005 24.1053C1.54542 24.0627 1.6108 24.0204 1.67927 23.9844C1.74775 23.9452 1.81987 23.9125 1.88835 23.8765C2.01909 23.8111 1.77395 23.9156 1.91117 23.8666C1.96669 23.8469 2.01908 23.8275 2.07459 23.8077C2.15631 23.7815 2.24113 23.7587 2.32621 23.7393C2.36875 23.7294 2.41103 23.7195 2.45695 23.7131C2.48627 23.7066 2.51584 23.7032 2.54515 23.7001C2.46681 23.7099 2.46033 23.7099 2.52543 23.7035C2.6528 23.6936 2.77705 23.6871 2.90441 23.6871H3.5415C3.40765 23.6316 3.27354 23.5761 3.13632 23.5206C3.76692 24.1904 4.39412 24.8567 5.02478 25.5265C5.11297 25.6212 5.20454 25.7161 5.29274 25.8108C5.23723 25.677 5.18172 25.5429 5.12621 25.4056V28.0489V28.4344C5.12621 28.735 5.38768 29.0194 5.69793 29.0061C6.00843 28.9932 6.26964 28.7545 6.26964 28.4344V25.8402C6.26964 25.703 6.27613 25.5657 6.26964 25.4285C6.25978 25.2129 6.15862 25.0625 6.0214 24.9188C5.70441 24.5823 5.38768 24.2456 5.07072 23.9092C4.74077 23.5564 4.40744 23.2034 4.07749 22.854C3.92392 22.6905 3.79655 22.5665 3.53845 22.5502C3.32289 22.5372 3.10058 22.5502 2.88166 22.5502C1.19892 22.5536 -0.35618 23.7559 -0.650094 25.4448C-0.731807 25.9154 -0.715462 26.3857 -0.715462 26.8596V28.3463V28.441C-0.715462 28.7515 -0.453987 29.0127 -0.143744 29.0127H1.8329H4.97916H5.69795C5.99859 29.0127 6.28289 28.7512 6.26966 28.441C6.25384 28.1214 6.01857 27.8599 5.6951 27.8599L5.69505 27.8598Z"
        fill="black" />
    <path
        d="M23.4323 9.97202C23.4323 11.1481 22.4782 12.7556 21.3055 12.7556C20.1294 12.7556 19.1787 11.1481 19.1787 9.97202C19.1787 8.7959 20.1294 7.84522 21.3055 7.84522C22.4782 7.84185 23.4323 8.7959 23.4323 9.97202Z"
        fill="black" />
    <path
        d="M22.8609 9.97239C22.8609 10.0248 22.8576 10.0769 22.8545 10.1293C22.8545 10.1522 22.8446 10.3057 22.848 10.2142C22.8513 10.1293 22.8381 10.2697 22.8316 10.299C22.8187 10.361 22.8054 10.4232 22.7925 10.4852C22.7663 10.5898 22.7336 10.6943 22.6978 10.7957C22.6814 10.8447 22.6617 10.8904 22.6423 10.9394C22.6194 11.0014 22.6552 10.9101 22.6586 10.9034C22.6389 10.9425 22.6225 10.9851 22.6031 11.0243C22.5084 11.2235 22.3906 11.4097 22.2633 11.5895C22.3286 11.4979 22.2633 11.5895 22.2306 11.6255C22.1945 11.6681 22.1554 11.7104 22.1162 11.7529C22.0835 11.789 22.0477 11.8214 22.0117 11.8574C21.9919 11.8772 21.9725 11.8935 21.9497 11.913C21.9367 11.9259 21.8485 12.0045 21.9136 11.9456C21.9691 11.8966 21.8646 11.9817 21.8418 11.9947C21.8026 12.0209 21.7634 12.0437 21.7242 12.0665C21.7014 12.0795 21.6786 12.0893 21.6558 12.1026C21.6329 12.1155 21.5741 12.1615 21.6361 12.1155C21.6851 12.0764 21.6623 12.1057 21.6327 12.1155C21.6034 12.1254 21.5738 12.1384 21.5411 12.1449C21.4986 12.1578 21.4563 12.1677 21.4137 12.1775C21.3092 12.2069 21.4498 12.1646 21.4529 12.1742C21.4529 12.1742 21.3875 12.1807 21.3777 12.1807C21.332 12.184 21.2895 12.184 21.2438 12.1807C21.2176 12.1807 21.1948 12.1742 21.1686 12.1742C21.1001 12.1708 21.2929 12.2035 21.1883 12.1742C21.1328 12.1578 20.9694 12.1449 20.9336 12.0958C20.9564 12.1251 21.0317 12.1449 20.9629 12.1057C20.9401 12.0927 20.9173 12.0829 20.8944 12.0696C20.8488 12.0434 20.8029 12.0172 20.7606 11.9879C20.7279 11.9682 20.607 11.8572 20.7149 11.9586C20.6789 11.9259 20.6397 11.8966 20.607 11.8639C20.5253 11.7887 20.447 11.707 20.3751 11.6188C20.3424 11.5796 20.2836 11.4914 20.3424 11.5827C20.3098 11.5337 20.274 11.4881 20.2413 11.439C20.1759 11.341 20.117 11.2398 20.0615 11.1353C20.0387 11.0896 20.0159 11.0437 19.993 10.998C19.9702 10.9524 19.9277 10.8479 19.9702 10.9524C19.9277 10.8445 19.8885 10.7368 19.8527 10.6224C19.8234 10.5213 19.7972 10.4165 19.7775 10.3119C19.771 10.2694 19.7482 10.2139 19.7546 10.1682C19.7448 10.2826 19.7645 10.2434 19.7611 10.2009C19.7578 10.1682 19.7546 10.1355 19.7546 10.1029C19.7482 9.99831 19.7513 9.8904 19.758 9.78587C19.758 9.7729 19.7645 9.6943 19.758 9.7729C19.7515 9.85461 19.7614 9.75993 19.7645 9.74021C19.7775 9.67484 19.7907 9.60947 19.807 9.54748C19.82 9.49846 19.8364 9.44943 19.8527 9.40377C19.8592 9.38406 19.869 9.3646 19.8755 9.34178C19.8395 9.45618 19.8527 9.38743 19.869 9.35812C19.9214 9.25696 19.9736 9.15553 20.039 9.06084C20.0553 9.03802 20.0716 9.01519 20.088 8.99237C20.0781 9.00871 20.0096 9.08393 20.0781 9.00871C20.1108 8.97265 20.1435 8.93348 20.1762 8.89768C20.2089 8.86163 20.2447 8.82921 20.2841 8.79315C20.3038 8.77343 20.3266 8.75709 20.3495 8.73764C20.4278 8.66578 20.2939 8.76695 20.3528 8.73426C20.441 8.68861 20.5162 8.62324 20.6076 8.57733C20.6338 8.56436 20.66 8.55113 20.6828 8.53816C20.6991 8.5283 20.7873 8.49561 20.7121 8.52181C20.6436 8.54801 20.7121 8.52181 20.7251 8.51844C20.7611 8.50858 20.7935 8.49561 20.8262 8.48239C20.9308 8.4497 21.0387 8.42687 21.1463 8.41053C21.0288 8.43025 21.143 8.41391 21.1953 8.41053C21.2638 8.40716 21.3326 8.40716 21.4013 8.41053C21.4537 8.41391 21.6005 8.43336 21.4732 8.41053C21.5385 8.42039 21.6039 8.43336 21.6693 8.4497C21.7313 8.46605 21.7966 8.48239 21.8589 8.50521C21.8786 8.5117 21.8981 8.52156 21.9209 8.52804C21.9863 8.54101 21.8293 8.48239 21.9243 8.52804C22.0322 8.58355 22.1367 8.64244 22.2379 8.7078C22.2542 8.71766 22.3294 8.77317 22.2641 8.72752C22.1956 8.67512 22.2934 8.75034 22.3066 8.76357C22.3492 8.79963 22.3914 8.8388 22.4309 8.88108C22.4765 8.92673 22.5126 8.97914 22.5582 9.02479C22.6138 9.0803 22.5092 8.94308 22.5453 9.00845C22.5616 9.03776 22.5878 9.06733 22.6042 9.09664C22.6335 9.14567 22.663 9.1947 22.6923 9.24372C22.7053 9.26992 22.7185 9.29275 22.7315 9.31894C22.738 9.33529 22.787 9.44631 22.7543 9.36797C22.7281 9.29949 22.7543 9.36797 22.7577 9.38094C22.7676 9.417 22.7805 9.44942 22.7938 9.4821C22.8135 9.5441 22.8298 9.60947 22.8428 9.67173C22.8493 9.70104 22.8527 9.73061 22.8591 9.75992C22.8721 9.83177 22.8591 9.78275 22.8558 9.74021C22.8511 9.82218 22.8609 9.89405 22.8609 9.97239C22.8643 10.273 23.1224 10.5573 23.4327 10.5441C23.7398 10.5311 24.0078 10.2925 24.0044 9.97237C23.9914 8.75036 23.1484 7.63308 21.9461 7.34879C20.7666 7.07097 19.4825 7.61986 18.9207 8.70806C18.3718 9.76976 18.6169 11.0507 19.2605 12.0177C19.5611 12.472 19.9595 12.9 20.4661 13.1254C21.0379 13.3835 21.6391 13.3737 22.2044 13.1026C22.7598 12.8346 23.1976 12.3218 23.4949 11.7924C23.8054 11.2401 24.0047 10.6064 24.0078 9.96933C24.0111 9.66869 23.7432 9.38439 23.4361 9.39761C23.1191 9.4137 22.864 9.64893 22.8609 9.97239Z"
        fill="black" />
    <path
        d="M10.821 9.97202C10.821 11.1481 9.86691 12.7556 8.69418 12.7556C7.51806 12.7556 6.56738 11.1481 6.56738 9.97202C6.56738 8.7959 7.51806 7.84522 8.69418 7.84522C9.86691 7.84185 10.821 8.7959 10.821 9.97202Z"
        fill="black" />
    <path
        d="M10.2496 9.97239C10.2496 10.0248 10.2462 10.0769 10.2431 10.1293C10.2431 10.1522 10.2333 10.3057 10.2366 10.2142C10.24 10.1293 10.2268 10.2697 10.2203 10.299C10.2073 10.361 10.1941 10.4232 10.1811 10.4852C10.1549 10.5898 10.1222 10.6943 10.0864 10.7957C10.0701 10.8447 10.0504 10.8904 10.0309 10.9394C10.0081 11.0014 10.0439 10.9101 10.0473 10.9034C10.0276 10.9425 10.0112 10.9851 9.99176 11.0243C9.89708 11.2235 9.77932 11.4097 9.65195 11.5895C9.71732 11.4979 9.65195 11.5895 9.61926 11.6255C9.58321 11.6681 9.54404 11.7104 9.50487 11.7529C9.47218 11.789 9.43639 11.8214 9.40033 11.8574C9.38061 11.8772 9.36116 11.8935 9.33833 11.913C9.32536 11.9259 9.23717 12.0045 9.30228 11.9456C9.35779 11.8966 9.25325 11.9817 9.23042 11.9947C9.19126 12.0209 9.15209 12.0437 9.11292 12.0665C9.09009 12.0795 9.06727 12.0893 9.04444 12.1026C9.02161 12.1155 8.96273 12.1615 9.02473 12.1155C9.07375 12.0764 9.05093 12.1057 9.02135 12.1155C8.99204 12.1254 8.96247 12.1384 8.92979 12.1449C8.88725 12.1578 8.84497 12.1677 8.80242 12.1775C8.69788 12.2069 8.83848 12.1646 8.84159 12.1742C8.84159 12.1742 8.77622 12.1807 8.76636 12.1807C8.72071 12.184 8.67817 12.184 8.63252 12.1807C8.60632 12.1807 8.58349 12.1742 8.55729 12.1742C8.48881 12.1708 8.68154 12.2035 8.57701 12.1742C8.52149 12.1578 8.35807 12.1449 8.32228 12.0958C8.3451 12.1251 8.42033 12.1449 8.35159 12.1057C8.32876 12.0927 8.30594 12.0829 8.28311 12.0696C8.23746 12.0434 8.19155 12.0172 8.14926 11.9879C8.11658 11.9682 7.9957 11.8572 8.10361 11.9586C8.06755 11.9259 8.02838 11.8966 7.9957 11.8639C7.91399 11.7887 7.83565 11.707 7.76379 11.6188C7.73111 11.5796 7.67223 11.4914 7.73111 11.5827C7.69843 11.5337 7.66263 11.4881 7.62995 11.439C7.56458 11.341 7.50569 11.2398 7.45018 11.1353C7.42736 11.0896 7.40453 11.0437 7.38171 10.998C7.35888 10.9524 7.31634 10.8479 7.35888 10.9524C7.31634 10.8445 7.27717 10.7368 7.24137 10.6224C7.21206 10.5213 7.18586 10.4165 7.16615 10.3119C7.15966 10.2694 7.13684 10.2139 7.14332 10.1682C7.13346 10.2826 7.15318 10.2434 7.14981 10.2009C7.14643 10.1682 7.14332 10.1355 7.14332 10.1029C7.13684 9.99831 7.13995 9.8904 7.14669 9.78587C7.14669 9.7729 7.15318 9.6943 7.14669 9.7729C7.14021 9.85461 7.15007 9.75993 7.15318 9.74021C7.16615 9.67484 7.17938 9.60947 7.19572 9.54748C7.20869 9.49846 7.22503 9.44943 7.24137 9.40377C7.24786 9.38406 7.25772 9.3646 7.2642 9.34178C7.22815 9.45618 7.24137 9.38743 7.25772 9.35812C7.31012 9.25696 7.36225 9.15553 7.42762 9.06084C7.44397 9.03802 7.46031 9.01519 7.47665 8.99237C7.46679 9.00871 7.39831 9.08393 7.46679 9.00871C7.49948 8.97265 7.53216 8.93348 7.56485 8.89768C7.59753 8.86163 7.63333 8.82921 7.67276 8.79315C7.69247 8.77343 7.7153 8.75709 7.73813 8.73764C7.81647 8.66578 7.68262 8.76695 7.7415 8.73426C7.82969 8.68861 7.90492 8.62324 7.99623 8.57733C8.02243 8.56436 8.04863 8.55113 8.07145 8.53816C8.08779 8.5283 8.17599 8.49561 8.10076 8.52181C8.03229 8.54801 8.10076 8.52181 8.11373 8.51844C8.14979 8.50858 8.18221 8.49561 8.2149 8.48239C8.31944 8.4497 8.42734 8.42687 8.535 8.41053C8.41749 8.43025 8.53162 8.41391 8.58402 8.41053C8.6525 8.40716 8.72125 8.40716 8.78999 8.41053C8.84239 8.41391 8.98921 8.43336 8.86184 8.41053C8.92721 8.42039 8.99258 8.43336 9.05794 8.4497C9.11994 8.46605 9.18531 8.48239 9.24757 8.50521C9.26728 8.5117 9.28674 8.52156 9.30956 8.52804C9.37493 8.54101 9.218 8.48239 9.31294 8.52804C9.42085 8.58355 9.52538 8.64244 9.62655 8.7078C9.64289 8.71766 9.71812 8.77317 9.65275 8.72752C9.58427 8.67512 9.68206 8.75034 9.69529 8.76357C9.73783 8.79963 9.78011 8.8388 9.81955 8.88108C9.8652 8.92673 9.90126 8.97914 9.94691 9.02479C10.0024 9.0803 9.89789 8.94308 9.93394 9.00845C9.95028 9.03776 9.97648 9.06733 9.99283 9.09664C10.0221 9.14567 10.0517 9.1947 10.081 9.24372C10.094 9.26992 10.1072 9.29275 10.1202 9.31894C10.1267 9.33529 10.1757 9.44631 10.143 9.36797C10.1168 9.29949 10.143 9.36797 10.1464 9.38094C10.1562 9.417 10.1692 9.44942 10.1824 9.4821C10.2022 9.5441 10.2185 9.60947 10.2315 9.67173C10.238 9.70104 10.2413 9.73061 10.2478 9.75992C10.2608 9.83177 10.2478 9.78275 10.2444 9.74021C10.2398 9.82218 10.2496 9.89405 10.2496 9.97239C10.253 10.273 10.5111 10.5573 10.8213 10.5441C11.1285 10.5311 11.3964 10.2925 11.3931 9.97237C11.3801 8.75036 10.537 7.63308 9.33474 7.34879C8.15523 7.07097 6.8712 7.61986 6.30934 8.70806C5.76045 9.76976 6.00558 11.0507 6.64915 12.0177C6.94979 12.472 7.34821 12.9 7.85482 13.1254C8.42654 13.3835 9.02782 13.3737 9.59307 13.1026C10.1484 12.8346 10.5863 12.3218 10.8836 11.7924C11.1941 11.2401 11.3933 10.6064 11.3964 9.96933C11.3998 9.66869 11.1319 9.38439 10.8247 9.39761C10.5077 9.4137 10.253 9.64893 10.2496 9.97239Z"
        fill="black" />
    <path
        d="M16.751 5.98585C16.751 6.94303 15.9733 8.25661 15.0161 8.25661C14.0589 8.25661 13.2812 6.94642 13.2812 5.98585C13.2812 5.02867 14.0589 4.25099 15.0161 4.25099C15.9733 4.24762 16.751 5.02528 16.751 5.98585Z"
        fill="black" />
    <path
        d="M16.1791 5.98579C16.1791 6.05116 16.1921 6.16218 16.1661 6.22107C16.1695 6.19824 16.1726 6.17204 16.176 6.14922C16.1726 6.17542 16.1661 6.20473 16.163 6.23093C16.1565 6.27347 16.1467 6.31264 16.1368 6.35518C16.1171 6.44 16.0911 6.52172 16.065 6.60343C16.052 6.64597 16.0356 6.68514 16.0193 6.72768C15.9965 6.78656 15.9965 6.78319 16.0258 6.71471C16.0128 6.74091 15.9996 6.76711 15.9897 6.79642C15.9114 6.95648 15.8198 7.10355 15.7187 7.25063C15.8004 7.13312 15.7187 7.25063 15.6989 7.27034C15.6727 7.30303 15.6434 7.33571 15.6141 7.36503C15.5848 7.39434 15.5552 7.42391 15.5259 7.45322C15.5161 7.46308 15.3921 7.5741 15.4574 7.51522C15.5259 7.45633 15.4248 7.53804 15.4183 7.54142C15.3856 7.56424 15.3529 7.58396 15.3171 7.60341C15.3041 7.6099 15.2289 7.6623 15.2126 7.65581C15.2354 7.64595 15.2551 7.6361 15.2779 7.62961C15.2551 7.63947 15.2289 7.64595 15.2061 7.65581C15.17 7.66878 15.1342 7.67553 15.0951 7.68512C14.9708 7.72118 15.2258 7.68512 15.0984 7.68512C15.0593 7.68512 15.0232 7.6885 14.984 7.6885C14.9578 7.6885 14.935 7.68512 14.9088 7.68201C14.997 7.69498 15.01 7.69498 14.948 7.68538C14.9119 7.67553 14.8728 7.66904 14.837 7.65607C14.824 7.6527 14.8141 7.64959 14.8009 7.6431C14.742 7.62027 14.7519 7.62676 14.8302 7.65607C14.7975 7.66904 14.6538 7.56139 14.6243 7.54167C14.5981 7.52196 14.5 7.43713 14.6113 7.53519C14.582 7.50899 14.5493 7.48279 14.5166 7.45347C14.4448 7.385 14.3794 7.31288 14.314 7.23791C14.2486 7.15957 14.314 7.23454 14.3239 7.25088C14.2977 7.21483 14.2715 7.17903 14.2486 7.14297C14.1996 7.07112 14.154 6.99278 14.1114 6.91756C14.0917 6.87839 14.0689 6.83922 14.0494 6.80005C14.0396 6.77722 13.9809 6.64 14.0365 6.77385C13.9973 6.67917 13.9646 6.58423 13.9353 6.48644C13.9125 6.40473 13.8896 6.32302 13.8764 6.23819C13.873 6.22522 13.8699 6.21199 13.8699 6.19565C13.8601 6.13028 13.8601 6.14014 13.8733 6.22496C13.8603 6.19565 13.8634 6.13677 13.8634 6.10408C13.857 6.01926 13.8634 5.93755 13.8634 5.85246C13.8668 5.70539 13.8341 5.96997 13.8668 5.82964C13.8798 5.77413 13.8896 5.71524 13.906 5.65973C13.9158 5.62367 14.004 5.42445 13.9387 5.55519C13.9778 5.47997 14.0139 5.405 14.0629 5.33314C14.0793 5.31032 14.1641 5.1993 14.0728 5.31032C14.099 5.27763 14.1283 5.24495 14.1545 5.21563C14.1838 5.18632 14.2134 5.15364 14.2427 5.12744C14.2655 5.10461 14.4126 5.00007 14.2917 5.08179C14.3636 5.03276 14.4323 4.9871 14.5073 4.94794C14.5335 4.93497 14.6642 4.88257 14.527 4.93497C14.5662 4.91863 14.6087 4.90566 14.6479 4.89243C14.7327 4.86623 14.8178 4.84677 14.9026 4.83354C14.7524 4.85974 14.8992 4.83692 14.9288 4.83692C14.9877 4.83354 15.0497 4.83354 15.1117 4.83692C15.141 4.83692 15.2849 4.86311 15.1379 4.83354C15.1804 4.84003 15.2227 4.84989 15.2686 4.85974C15.3111 4.8696 15.3534 4.88257 15.396 4.8958C15.4287 4.90566 15.5952 4.98399 15.4613 4.91551C15.5495 4.96117 15.6346 5.0102 15.7194 5.06259C15.8369 5.13444 15.6346 4.98088 15.7392 5.07556C15.7817 5.11473 15.824 5.15079 15.8634 5.18996C15.8927 5.21927 15.9189 5.25195 15.9482 5.28464C15.9874 5.33367 15.9843 5.32718 15.9384 5.2683C15.9547 5.29112 15.9711 5.31395 15.9874 5.33678C16.0102 5.37283 16.0331 5.40863 16.0528 5.44469C16.0691 5.47089 16.141 5.6439 16.0855 5.5002C16.1215 5.59488 16.1539 5.68982 16.1736 5.79098C16.1801 5.8203 16.19 5.96427 16.1801 5.81381C16.1726 5.86491 16.176 5.92379 16.1791 5.98579C16.1825 6.28306 16.4406 6.57074 16.7508 6.55751C17.0579 6.54454 17.3259 6.30589 17.3225 5.98579C17.3096 4.94999 16.6037 4.0027 15.5877 3.75109C14.5781 3.49947 13.4704 3.96665 12.9838 4.89792C12.5166 5.79308 12.7094 6.87457 13.2484 7.69788C13.5065 8.08983 13.8497 8.46566 14.2873 8.65844C14.7838 8.87738 15.2935 8.87738 15.7869 8.6421C16.2606 8.41668 16.6396 7.97882 16.8912 7.528C17.1527 7.06082 17.3192 6.52494 17.3257 5.98924C17.3291 5.6886 17.0611 5.40429 16.754 5.41752C16.4375 5.42712 16.1825 5.66239 16.1791 5.98586L16.1791 5.98579Z"
        fill="black" />
</svg>
    