<svg width="27" height="28" viewBox="0 0 27 28" fill="none" xmlns="http://www.w3.org/2000/svg">
    <path
        d="M25.926 2.62497H21.1622V0.972175C21.1622 0.421328 20.7409 0 20.19 0C19.6392 0 19.2178 0.421322 19.2178 0.972175V2.62497H7.68058V0.972175C7.68058 0.421328 7.25925 0 6.7084 0C6.15755 0 5.73623 0.421322 5.73623 0.972175V2.62497H0.972175C0.421328 2.62497 0 3.0463 0 3.59715V27.0278C0 27.5787 0.421322 28 0.972175 28H25.9259C26.4767 28 26.898 27.5787 26.898 27.0278V3.59778C26.898 3.04669 26.4767 2.62535 25.9256 2.62535L25.926 2.62497ZM1.94435 26.0556V11.0834H24.9533V26.0556H1.94435Z"
        fill="black" />
    <path
        d="M17.7596 19.769H9.13917C8.58832 19.769 8.16699 20.1904 8.16699 20.7412C8.16699 21.2921 8.58831 21.7134 9.13917 21.7134H17.7596C18.3105 21.7134 18.7318 21.2921 18.7318 20.7412C18.7318 20.1904 18.3105 19.769 17.7594 19.769H17.7596Z"
        fill="black" />
    <path
        d="M21 15.4263H5.89796C5.34711 15.4263 4.92578 15.8476 4.92578 16.3984C4.92578 16.9493 5.3471 17.3706 5.89796 17.3706H21C21.5509 17.3706 21.9722 16.9493 21.9722 16.3984C21.9722 15.8476 21.5509 15.4263 21 15.4263Z"
        fill="black" />
</svg>
    