<svg width="29" height="29" viewBox="0 0 29 29" fill="none" xmlns="http://www.w3.org/2000/svg">
    <path
        d="M22.5776 26.7252C21.6293 28.0899 20.095 28.9296 18.4342 28.9928C18.2767 28.9979 18.1235 29 17.9598 29C14.9449 28.9512 11.9916 28.1367 9.37775 26.6332C6.76683 25.158 4.55382 23.0701 2.9298 20.5493C1.3055 18.0283 0.319136 15.1503 0.0552409 12.1632C-0.0969049 10.4593 -0.0483299 8.30579 1.71881 6.76944C3.04112 5.61134 4.87279 5.22947 6.54787 5.76247C6.86373 5.87118 7.10763 6.12536 7.20349 6.44534L9.1197 12.8366C9.22301 13.1764 9.14489 13.5454 8.91256 13.8143C8.681 14.0792 8.42554 14.3218 8.14923 14.5395C8.70102 15.9674 9.54529 17.2643 10.6278 18.3468C11.71 19.4296 13.0068 20.2738 14.4347 20.8262C14.6565 20.5465 14.9053 20.2895 15.1775 20.0585C15.444 19.83 15.8082 19.7519 16.1448 19.8513L22.536 21.7583C22.8596 21.8547 23.1161 22.103 23.2228 22.4234C23.7072 23.8781 23.4674 25.4766 22.5774 26.7252L22.5776 26.7252ZM21.4384 6.7331C21.1636 6.7331 20.9002 6.84233 20.7059 7.03663C20.5116 7.23067 20.4024 7.49435 20.4024 7.76911C20.4024 8.04359 20.5116 8.30728 20.7059 8.50159C20.9002 8.69563 21.1636 8.80486 21.4384 8.80486C21.7131 8.80486 21.9765 8.69563 22.1708 8.50159C22.3651 8.3073 22.4741 8.04361 22.4741 7.76911C22.4741 7.49437 22.3651 7.23068 22.1708 7.03663C21.9765 6.84233 21.7131 6.7331 21.4384 6.7331ZM28.7993 9.32268C28.9182 9.48485 28.9874 9.67786 28.9984 9.87859C29.0095 10.0793 28.9619 10.2787 28.8615 10.4527L27.4682 12.8642C27.3677 13.0382 27.2189 13.1793 27.0398 13.27C26.8607 13.361 26.6589 13.3978 26.4595 13.3759L25.2413 13.2433L24.2706 13.8036L23.7766 14.9164C23.6959 15.101 23.5635 15.258 23.3952 15.3682C23.2269 15.4788 23.03 15.5376 22.8288 15.5379H20.0444C19.8432 15.5376 19.6463 15.4788 19.478 15.3682C19.3096 15.258 19.177 15.101 19.0966 14.9164L18.6024 13.7956L17.6317 13.2353L16.4134 13.368L16.4137 13.3677C16.214 13.3896 16.0123 13.3525 15.8331 13.2618C15.654 13.1708 15.5052 13.03 15.4047 12.856L14.0125 10.4445C13.9138 10.2716 13.8671 10.0737 13.8779 9.87474C13.8887 9.67556 13.9568 9.48408 14.0737 9.32269L14.7987 8.33446V7.20853L14.0737 6.22031C13.955 6.05814 13.8861 5.86487 13.8753 5.6644C13.8642 5.46368 13.912 5.26424 14.0125 5.09025L15.4047 2.67877C15.5057 2.50529 15.6548 2.36471 15.8336 2.27399C16.0128 2.18326 16.214 2.146 16.4137 2.16707L17.6319 2.29969L18.6026 1.73941L19.0966 0.621442C19.177 0.43691 19.3096 0.27988 19.478 0.169623C19.6463 0.0591088 19.8432 0.000256596 20.0444 0H22.8288C23.03 0.000257057 23.2269 0.0591115 23.3952 0.169623C23.5635 0.27988 23.6959 0.43691 23.7766 0.621442L24.2708 1.74224L25.2415 2.30251L26.4597 2.1699L26.4595 2.17016C26.6589 2.14831 26.8607 2.18532 27.0398 2.27605C27.2189 2.36703 27.3677 2.50786 27.4682 2.68186L28.8615 5.09334C28.9619 5.26733 29.0095 5.46703 28.9984 5.6675C28.9874 5.86822 28.9182 6.06149 28.7993 6.2234L28.0742 7.21162V8.33242L28.7993 9.32268ZM24.5461 7.76909C24.5461 6.94489 24.2187 6.15431 23.636 5.57171C23.0532 4.98881 22.2629 4.66138 21.4387 4.66138C20.6145 4.66138 19.8239 4.98881 19.2413 5.57171C18.6585 6.15434 18.331 6.94489 18.331 7.76909C18.331 8.59303 18.6585 9.38361 19.2413 9.96628C19.824 10.5492 20.6145 10.8766 21.4387 10.8766C22.2629 10.8766 23.0532 10.5492 23.636 9.96628C24.2187 9.38364 24.5461 8.59309 24.5461 7.76909Z"
        fill="black" />
</svg>
    