<svg width="37" height="31" viewBox="0 0 37 31" fill="none" xmlns="http://www.w3.org/2000/svg">
    <path
        d="M0 1.2605V10.9074V26.196V29.7221C0 30.402 0.57934 30.9813 1.25923 30.9813H4.6344H12.7445H22.5589H31.0468C32.4154 30.9813 33.7922 31.0233 35.1608 30.9813H35.2197C35.8745 30.9813 36.5125 30.402 36.4789 29.7221C36.4454 29.0422 35.925 28.4629 35.2197 28.4629H31.8445H23.7344H13.92H5.43211C4.07198 28.4629 2.67827 28.3874 1.31814 28.4629H1.25923C1.67909 28.8827 2.09894 29.3026 2.51846 29.7221V20.0752V4.78664V1.2605C2.51846 0.605647 1.93912 -0.0323087 1.25923 0.00126967C0.579315 0.034793 0 0.555221 0 1.2605Z"
        fill="black" />
    <path
        d="M29.5786 8.75779C26.6487 11.5871 23.7099 14.4164 20.7799 17.2457C20.3685 17.6486 19.9486 18.0434 19.5372 18.4463H21.3172C19.739 16.9101 18.152 15.3736 16.5737 13.8374C16.3472 13.619 16.1204 13.4009 15.902 13.1825C15.4235 12.7122 14.6007 12.6871 14.122 13.1825C11.5025 15.9194 8.88318 18.6482 6.25532 21.385C5.88591 21.7714 5.5165 22.1574 5.14707 22.5437C4.67676 23.0306 4.66016 23.8365 5.14707 24.3237C5.62551 24.8021 6.45679 24.8191 6.92706 24.3237C9.5465 21.5868 12.1659 18.858 14.7937 16.1212C15.1631 15.7348 15.5325 15.3488 15.902 14.9625H14.122C15.7002 16.4988 17.2872 18.0353 18.8655 19.5715C19.092 19.7899 19.3188 20.0079 19.5372 20.2263C20.0326 20.7048 20.8219 20.7048 21.3172 20.2263C24.2471 17.397 27.1858 14.5677 30.1159 11.7384C30.5273 11.3355 30.9472 10.9407 31.3586 10.5378C31.8455 10.0675 31.837 9.22805 31.3586 8.75779C30.8713 8.26242 30.0739 8.27934 29.5786 8.75779Z"
        fill="black" />
</svg>
    