<svg width="32" height="30" viewBox="0 0 32 30" fill="none" xmlns="http://www.w3.org/2000/svg">
    <path fill-rule="evenodd" clip-rule="evenodd"
        d="M21.6792 28.2555H18.0126L18.0124 21.6937C18.0124 21.2117 17.6604 20.8207 17.2282 20.8207C16.7962 20.8207 16.4443 21.2117 16.4443 21.6937V28.2558L6.80614 28.2555V21.6937C6.80614 21.2117 6.45367 20.8207 6.02221 20.8207C5.59 20.8207 5.23751 21.2117 5.23751 21.6937V28.2558L1.56819 28.2556V22.635C1.56819 18.4975 4.59546 15.1312 8.3152 15.1312H14.9347C18.6541 15.1312 21.6785 18.4974 21.6785 22.635V28.2556L21.6792 28.2555ZM14.9354 13.3862H8.31526C3.73147 13.3862 0 17.5353 0 22.6349V29.1278C0 29.6098 0.351706 30 0.783931 30H22.4625C22.898 30 23.2497 29.6098 23.2497 29.1278V22.6349C23.2497 17.535 19.518 13.3862 14.9351 13.3862H14.9354ZM24.9838 14.7382C21.9804 14.7382 19.5361 12.0195 19.5361 8.67766C19.5361 5.33585 21.9804 2.61773 24.9838 2.61773C27.9879 2.61773 30.4318 5.33592 30.4318 8.67766C30.4318 12.0195 27.9874 14.7382 24.9838 14.7382ZM24.9838 0.872051C21.1162 0.872051 17.9682 4.37394 17.9682 8.67752C17.9682 12.9813 21.1165 16.483 24.9838 16.483C28.8516 16.483 32 12.9817 32 8.67752C32 4.37373 28.8515 0.872051 24.9838 0.872051ZM28.754 8.67752C28.754 8.1958 28.402 7.80504 27.9698 7.80504H25.7682V5.35584C25.7682 4.87384 25.4162 4.48336 24.984 4.48336C24.5492 4.48336 24.2 4.87411 24.2 5.35584V7.80504H21.9984C21.5632 7.80504 21.2143 8.19606 21.2143 8.67752C21.2143 9.15952 21.5634 9.55058 21.9984 9.55058H24.2V11.9998C24.2 12.4815 24.5492 12.8723 24.984 12.8723C25.4162 12.8723 25.7682 12.4815 25.7682 11.9998V9.55058H27.9698C28.4017 9.55029 28.754 9.15927 28.754 8.67752ZM11.6262 1.74539C13.9196 1.74539 15.7898 3.82341 15.7898 6.3778C15.7898 8.93197 13.9196 11.0102 11.6262 11.0102C9.33034 11.0102 7.46003 8.93218 7.46003 6.3778C7.46003 3.82341 9.32976 1.74539 11.6262 1.74539ZM11.6262 12.7553C14.7866 12.7553 17.3585 9.89438 17.3585 6.37766C17.3585 2.86122 14.7866 0 11.6262 0C8.46288 0 5.89146 2.86093 5.89146 6.37766C5.89146 9.89409 8.46262 12.7553 11.6262 12.7553Z"
        fill="black" />
</svg>
    