<svg width="35" height="38" viewBox="0 0 35 38" fill="none" xmlns="http://www.w3.org/2000/svg">
    <path d="M34.2817 9.30554C34.1215 9.11912 33.8996 9.00953 33.6649 9.00112L30.4151 9.02142C30.2013 9.02229 29.9962 9.11535 29.8453 9.28002C29.6942 9.44499 29.6098 9.66822 29.6106 9.90045C29.6119 10.3846 29.9743 10.7757 30.42 10.7742H30.4248L31.3567 10.7684L27.3972 13.9198L27.3975 5.15311C27.3967 4.37381 27.1109 3.62643 26.6031 3.07528C26.0954 2.52415 25.407 2.21397 24.689 2.21338H7.08099C6.36295 2.21425 5.67484 2.52417 5.1672 3.07528C4.65958 3.6267 4.37389 4.37381 4.37307 5.15311V21.3157L0.884899 23.8282C0.70145 23.954 0.57221 24.1549 0.526812 24.3854C0.48115 24.6159 0.523074 24.8565 0.643235 25.0531C0.76313 25.2496 0.950852 25.3853 1.16421 25.4297C1.37756 25.474 1.5984 25.4233 1.7765 25.2888L4.37307 23.4191V32.8471C4.37413 33.6264 4.65959 34.3735 5.1672 34.9247C5.67482 35.4758 6.36294 35.786 7.08099 35.7869H19.9886C19.2329 35.3404 18.4983 34.8528 17.7878 34.3263C17.6452 34.2245 17.5111 34.1282 17.3792 34.034L7.08156 34.0343C6.79157 34.0337 6.51359 33.9085 6.30876 33.6861C6.10368 33.4635 5.98832 33.1617 5.98806 32.8471V22.2561L9.24688 19.9109L15.9637 20.8511V20.8508C16.2436 20.892 16.5226 20.7696 16.6972 20.5287L20.837 14.9101L25.7877 16.3264V22.8345C26.333 22.9122 26.8724 23.0313 27.4022 23.1908V16.0933L32.5542 11.9924L32.3777 13.2286C32.3449 13.4582 32.3972 13.6928 32.5235 13.8806C32.6498 14.0682 32.8399 14.1938 33.0514 14.2294C33.0928 14.2358 33.1345 14.2393 33.1764 14.2393C33.574 14.239 33.9124 13.9241 33.9732 13.4974L34.4709 10.0117C34.5064 9.75772 34.4373 9.4994 34.2821 9.30545L34.2817 9.30554ZM25.784 14.5118L20.7368 13.0681C20.4279 12.9796 20.1003 13.0973 19.9008 13.3684L15.7189 19.0496L9.1537 18.1306C8.96117 18.1033 8.76597 18.1526 8.60441 18.2697L5.987 20.1533V5.15299C5.98727 4.83843 6.10236 4.53662 6.30744 4.31395C6.51251 4.09127 6.79049 3.96634 7.08051 3.96605H24.6899C24.9799 3.96634 25.2579 4.09129 25.463 4.31395C25.6681 4.5366 25.7837 4.83841 25.7839 5.15299L25.784 14.5118Z" fill="black" />
    <path d="M23.5641 24.2177C19.0518 24.5752 15.9358 28.1041 15.0226 29.2687V29.2684C14.461 29.1037 13.8826 29.0147 13.3007 29.0034H13.235C12.7907 28.9611 12.3992 29.318 12.3605 29.8001C12.3218 30.2825 12.6505 30.7076 13.0946 30.7496C13.0946 30.7496 13.1651 30.7571 13.2882 30.7583C14.5392 30.7699 15.9162 31.3146 17.6234 32.4726C17.9198 32.6735 18.2202 32.8892 18.5265 33.1089C20.1409 34.2674 22.0926 35.6675 24.5912 35.6675C26.5173 35.6675 28.7676 34.8348 31.4388 32.4178H31.4385C31.7811 32.1076 31.8273 31.5547 31.5416 31.1827C31.2562 30.8111 30.7469 30.7609 30.4043 31.0708C25.1914 35.7898 22.2552 33.683 19.4162 31.6463C19.0982 31.4184 18.7866 31.1946 18.4781 30.9856C17.8965 30.587 17.2922 30.2295 16.6685 29.9146C17.7932 28.6398 20.3385 26.2274 23.6931 25.9674C26.6422 25.7389 29.6064 27.2059 32.5114 30.3265C32.8284 30.6669 33.3395 30.664 33.653 30.3199C33.9664 29.9757 33.9638 29.4209 33.6468 29.0805C30.3923 25.5806 26.9933 23.9478 23.5631 24.2177L23.5641 24.2177Z" fill="black" />
    <path d="M21.4082 29.9084C21.4085 30.7785 21.7268 31.6129 22.2937 32.2281C22.8603 32.843 23.6288 33.1885 24.4302 33.1885C25.2315 33.1882 26 32.8427 26.5667 32.2275C27.1333 31.6123 27.4516 30.7776 27.4513 29.9075C27.4513 29.0375 27.133 28.2034 26.5664 27.5882C25.9998 26.973 25.2313 26.6274 24.4299 26.6274C23.6285 26.6283 22.8606 26.9742 22.2939 27.5894C21.7276 28.2046 21.409 29.0387 21.4082 29.9084ZM25.8371 29.9084C25.8369 30.3137 25.6887 30.7022 25.4246 30.9887C25.1605 31.2752 24.8027 31.4357 24.4296 31.4357C24.0563 31.4357 23.6985 31.2745 23.4346 30.9881C23.1708 30.7014 23.0226 30.3129 23.0226 29.9076C23.0226 29.5025 23.1708 29.1141 23.4349 28.8276C23.6987 28.5409 24.0565 28.38 24.4299 28.38C24.8029 28.3805 25.1607 28.5417 25.4246 28.8282C25.6884 29.1149 25.8369 29.5034 25.8371 29.9084Z" fill="black" />
</svg>
