<svg width="29" height="29" viewBox="0 0 29 29" fill="none" xmlns="http://www.w3.org/2000/svg">
    <path
        d="M17.4027 14.5C17.4027 15.269 17.0971 16.0066 16.5535 16.5506C16.0097 17.0943 15.2722 17.4 14.5034 17.4C13.7343 17.4 12.9968 17.0943 12.4532 16.5506C11.9094 16.0067 11.604 15.269 11.604 14.5C11.604 13.7307 11.9094 12.9931 12.4532 12.4493C12.9968 11.9054 13.7343 11.5999 14.5034 11.5999C15.2722 11.5999 16.0096 11.9054 16.5535 12.4493C17.0971 12.993 17.4027 13.7307 17.4027 14.5ZM28.9997 14.616C28.9992 15.2854 28.8114 15.9416 28.4581 16.5104C28.1044 17.0792 27.5994 17.5379 26.9993 17.835L25.3176 18.676C25.0004 18.8376 24.8563 19.2132 24.9842 19.5459L25.5205 20.8074H25.5207C25.8997 21.6891 25.9108 22.6858 25.5512 23.5757C25.1916 24.4658 24.4913 25.1749 23.6063 25.5454C22.721 25.9161 21.7245 25.9175 20.8384 25.5489L19.3888 24.9399C19.2134 24.8625 19.0133 24.8625 18.8379 24.9399C18.665 25.0252 18.5342 25.1768 18.4754 25.3606L18.142 26.4336V26.4334C17.9272 27.1773 17.4754 27.8305 16.8552 28.2938C16.2351 28.7571 15.4803 29.005 14.7064 28.9999H14.3005C13.5308 29.0029 12.7809 28.7555 12.164 28.2954C11.5471 27.8351 11.096 27.1867 10.8794 26.448L10.546 25.3749C10.4804 25.1861 10.3383 25.0333 10.1546 24.9546C9.97898 24.8769 9.77909 24.8769 9.60375 24.9546L8.15412 25.5635C7.26717 25.9189 6.27586 25.9084 5.39671 25.5336C4.51783 25.1591 3.82326 24.4513 3.465 23.5655C3.10704 22.6797 3.11459 21.6878 3.48604 20.8074L4.0223 19.546H4.02257C4.15205 19.2093 4.00854 18.8288 3.68916 18.6615L2.0075 17.8351C1.14244 17.4117 0.484193 16.6578 0.181588 15.7432C-0.121341 14.8288 -0.0428449 13.8306 0.399004 12.9748C0.840854 12.1187 1.60887 11.4768 2.52953 11.194L3.57317 10.8751C3.75337 10.8222 3.90362 10.6973 3.98886 10.5297C4.07383 10.3625 4.08596 10.1674 4.02258 9.99064L3.34118 8.04739C3.12134 7.41413 3.08357 6.73202 3.23221 6.07824C3.38084 5.42474 3.70994 4.82573 4.18201 4.35002L4.35599 4.1034C4.80918 3.64768 5.37699 3.32225 5.99933 3.16145C6.62164 3.00091 7.27576 3.01062 7.89299 3.19005L9.8066 3.72645C9.97763 3.77555 10.1613 3.75397 10.3164 3.66682C10.4715 3.57967 10.5856 3.43396 10.6328 3.26236L10.8648 2.52278V2.52305C11.0928 1.79322 11.5476 1.15533 12.1626 0.701513C12.7779 0.247947 13.5216 0.00214128 14.2861 0H14.7209C15.4857 0 16.2304 0.244728 16.8463 0.698819C17.4618 1.15292 17.9158 1.79212 18.1419 2.52305L18.3739 3.26263V3.26236C18.4211 3.43396 18.5352 3.57967 18.6903 3.66682C18.8454 3.75397 19.0291 3.77555 19.2001 3.72645L21.1138 3.19005C21.7309 3.01062 22.3851 3.0009 23.0074 3.16145C23.63 3.32226 24.1975 3.64766 24.6507 4.1034L24.8682 4.32088C25.3459 4.79954 25.6782 5.4034 25.8269 6.06285C25.9758 6.72228 25.9348 7.41034 25.709 8.04733L25.0276 9.9903L25.0279 9.99057C24.9642 10.1673 24.9763 10.3624 25.0616 10.5297C25.1466 10.6972 25.2971 10.8222 25.4773 10.875L26.5209 11.194C27.2422 11.4295 27.8705 11.8877 28.3158 12.5023C28.7612 13.1169 29.0005 13.8567 28.9997 14.616ZM20.3017 14.5C20.3017 12.9617 19.691 11.4864 18.6033 10.3987C17.5159 9.31082 16.0412 8.69993 14.5034 8.69993C12.9656 8.69993 11.4905 9.31081 10.4032 10.3987C9.31552 11.4864 8.70479 12.9617 8.70479 14.5C8.70479 16.0382 9.31551 17.5133 10.4032 18.601C11.4905 19.6889 12.9655 20.2997 14.5034 20.2997C16.0413 20.2997 17.5159 19.6889 18.6033 18.601C19.6909 17.5133 20.3017 16.0382 20.3017 14.5Z"
        fill="black" />
</svg>
    