<svg width="25" height="40" viewBox="0 0 25 40" fill="none" xmlns="http://www.w3.org/2000/svg">
    <path
        d="M12.3809 40H18.0952C21.7715 40 24.7619 37.0096 24.7619 33.3333L24.7616 6.6667C24.7616 2.99041 21.7712 0 18.0949 0H12.3806C8.70428 0 5.71387 2.99041 5.71387 6.6667C5.71387 7.19233 6.14061 7.61907 6.66624 7.61907C7.19223 7.61907 7.61898 7.19233 7.61898 6.6667C7.61898 4.03996 9.7541 1.90484 12.3808 1.90484H18.0952C20.7219 1.90484 22.857 4.03996 22.857 6.6667V33.3333C22.857 35.96 20.7219 38.0952 18.0952 38.0952H12.3808C9.7541 38.0952 7.61898 35.96 7.61898 33.3333C7.61898 32.8077 7.19223 32.3809 6.6666 32.3809C6.14061 32.3806 5.71423 32.8073 5.71423 33.3329C5.71423 37.0092 8.70464 39.9996 12.3809 39.9996L12.3809 40Z"
        fill="black" />
    <path
        d="M10.4761 19.0479H0.952373C0.426735 19.0479 0 19.4746 0 20.0002C0 20.5259 0.426744 20.9526 0.952373 20.9526H10.4761C11.0017 20.9526 11.4285 20.5259 11.4285 20.0002C11.4285 19.4742 11.0017 19.0479 10.4761 19.0479Z"
        fill="black" />
    <path
        d="M11.7061 24.4839C11.8929 24.6685 12.1368 24.7621 12.3806 24.7621C12.6245 24.7621 12.8683 24.6689 13.0548 24.4839L16.8643 20.6744C17.2357 20.3029 17.2357 19.6993 16.8643 19.3278L13.0548 15.5183C12.6833 15.1469 12.0797 15.1469 11.7082 15.5183C11.3368 15.8898 11.3368 16.4934 11.7082 16.8649L14.8433 20.0003L11.7079 23.1357C11.3346 23.5086 11.3346 24.1107 11.7061 24.4839L11.7061 24.4839Z"
        fill="black" />
</svg>
    