<svg width="30" height="32" viewBox="0 0 30 32" fill="none" xmlns="http://www.w3.org/2000/svg">
<mask id="mask0_8232_2600" style="mask-type:luminance" maskUnits="userSpaceOnUse" x="1" y="17" width="26" height="15">
<path d="M26.6875 17.3125H1.3125V31.7438H26.6875V17.3125Z" fill="white"/>
</mask>
<g mask="url(#mask0_8232_2600)">
<path d="M13.5698 31.7374C16.0175 31.7989 20.8266 31.4176 22.3966 31.0443C23.4711 30.8211 24.4765 30.1949 25.2355 29.3272C25.9946 28.4595 26.4728 27.3868 26.5841 26.3033C26.5841 26.2923 26.5841 26.2811 26.5873 26.2701C26.6694 25.4603 26.6945 24.6461 26.663 23.8328C26.663 23.8328 26.7245 23.1158 26.5873 21.8138L26.5837 21.7811C26.4699 20.7124 25.9924 19.7151 25.2307 18.957C24.4653 18.1904 23.4621 17.7073 22.3857 17.5867C20.8095 17.4199 16.0125 17.3284 13.5744 17.3291C11.1364 17.3298 7.22254 17.4194 5.64629 17.5867H5.64604C4.5696 17.707 3.56623 18.1907 2.80104 18.9575C2.03955 19.7164 1.56204 20.7134 1.44804 21.7822C1.44804 21.7932 1.44804 21.8037 1.44487 21.815C1.30888 23.1175 1.32744 23.8316 1.32671 23.832H1.32695C1.32329 24.6472 1.36235 25.4619 1.44438 26.273L1.44804 26.3062C1.55937 27.3904 2.03789 28.4617 2.79667 29.3308C3.55573 30.1997 4.55936 30.8211 5.63067 31.0474C7.20317 31.4034 11.1239 31.754 13.5694 31.7373L13.5698 31.7374Z" fill="black"/>
</g>
<mask id="mask1_8232_2600" style="mask-type:luminance" maskUnits="userSpaceOnUse" x="6" y="0" width="16" height="16">
<path d="M21.8125 0.255859H6.5V15.5002H21.8125V0.255859Z" fill="white"/>
</mask>
<g mask="url(#mask1_8232_2600)">
<path d="M6.53777 7.87711C6.53777 12.0861 9.9499 15.4984 14.159 15.4984C18.3681 15.4984 21.7803 12.0862 21.7803 7.87711C21.7803 3.66798 18.3681 0.255859 14.159 0.255859C9.9499 0.255859 6.53777 3.66798 6.53777 7.87711Z" fill="black"/>
</g>
</svg>
